# xmcd
#
# Track frame offsets:
#	150
#	18226
#	33579
#	50030
#	62955
#	81924
#	96443
#	112798
#	135521
#	150944
#	164212
#	182059
#	206530
#
# Disc length: 3663 seconds
#
# Revision: 0
# Processed by: cddbd v1.4PL0 Copyright (c) Steve Scherf et al.
# Submitted via: EasyCDDAExtractor 4.6.0.1
#
DISCID=ae0e4d0d
DTITLE=Че те надо
DYEAR=1900
DGENRE=
TTITLE0=Вдоль реки
TTITLE1=Приходи-ка на чаек - выпьем водочки
TTITLE2=Че те надо (remix)
TTITLE3=Ой, как ты мне нравишься
TTITLE4=Ивы тонкой веточка
TTITLE5=Заплетися, плетень
TTITLE6=Несчастная девчоночка
TTITLE7=Степь да степь кругом
TTITLE8=Частушки "Про это"
TTITLE9=На север и на юг
TTITLE10=Реченька туманная
TTITLE11=Здесь дует (remix)
TTITLE12=Видео
EXTD=
EXTT0=
EXTT1=
EXTT2=
EXTT3=
EXTT4=
EXTT5=
EXTT6=
EXTT7=
EXTT8=
EXTT9=
EXTT10=
EXTT11=
EXTT12=
PLAYORDER=
